<svg width="104" height="89" viewBox="0 0 104 89" fill="none" xmlns="http://www.w3.org/2000/svg">
<path d="M9.22047 2.33415C8.87148 2.45258 8.94297 3.81682 8.94297 3.81682L8.8 19.2174H10.7301V15.6191H101.037V64.0757H49.0928V48.5072L50.3557 48.1234C51.0228 47.9315 53.5724 47.1879 56.0028 46.4922L60.3872 45.2208L64.3902 39.3437C66.5824 36.1292 68.4886 33.1786 68.6316 32.7948C68.989 31.7633 68.9175 30.9477 68.4171 29.9162L67.9406 29.0047L70.7999 24.8307C72.3487 22.5518 73.6354 20.4648 73.6354 20.2249C73.6354 19.6012 73.0635 19.1454 72.5155 19.3133C72.2772 19.3853 70.7761 21.4003 69.1796 23.7512C66.7253 27.3495 66.1773 28.0211 65.7722 27.9252C64.9859 27.7093 63.6754 28.0691 62.9129 28.7168C62.5317 29.0526 60.7207 31.2836 58.9098 33.6824C57.1227 36.0812 55.5263 38.1682 55.4071 38.3601C55.2642 38.5281 52.9291 39.1278 50.0936 39.7275C47.3295 40.3032 44.9468 40.831 44.8276 40.9029C44.7085 40.9989 43.8745 42.2223 42.9929 43.6376C42.1351 45.0529 41.3726 46.2283 41.3488 46.2763C41.3249 46.3003 39.9191 45.1489 38.2273 43.6856C35.1774 41.0708 35.1535 41.0468 33.9383 41.0468C31.1266 41.0468 28.4818 42.702 27.3857 45.1729C26.8138 46.4203 26.8138 46.5642 26.7423 55.248L26.6708 64.0757H10.7301V38.1682H8.82383L8.87148 55.4399L8.94297 72.7116L9.72928 73.4792L10.4918 74.2708L25.8845 74.3428L41.3011 74.3908L41.0867 76.8616C40.8007 80.2679 40.8484 81.1795 41.3964 82.3069L41.873 83.2665H37.4172C34.9391 83.2665 32.7708 83.3384 32.5563 83.4104C32.0559 83.6023 32.0559 84.8497 32.5563 85.0416C33.0329 85.2335 78.7346 85.2335 79.2111 85.0416C79.6638 84.8737 79.7115 83.9621 79.3064 83.5543C79.092 83.3384 77.6861 83.2665 74.4217 83.2665H69.823L70.1565 82.7147C70.8476 81.6832 70.9905 80.148 70.6808 77.2214L70.3948 74.3908L85.8352 74.3428L101.276 74.2708L102.038 73.4792L102.824 72.7116V38.2642L103 3.67288C103 3.67288 102.891 2.71335 102.453 2.44419C102.015 2.17503 101.037 2.1856 101.037 2.1856H93.6507C86.3118 2.1856 86.288 2.1856 86.002 2.71335C85.7637 3.14514 85.8114 3.28907 86.2641 3.67288C86.7407 4.0567 87.384 4.10468 93.6269 4.10468C98.6308 4.10468 100.537 4.17664 100.751 4.39254C100.942 4.58445 101.037 5.99976 101.037 9.19022V13.7H10.7301V9.19022C10.7301 5.99976 10.8254 4.58445 11.016 4.39254C11.2304 4.17664 8.53385 3.78398 47.0674 4.10468C74.7587 4.33514 81.5331 4.34006 83.1936 3.87505C83.8438 3.69297 83.7407 3.21465 83.7407 2.88445C83.7407 2.55425 83.5239 2.30554 83.5239 2.30554L10.7301 2.1856C10.7301 2.1856 9.56945 2.21571 9.22047 2.33415ZM66.0105 30.1321C66.7015 30.4919 67.1542 31.6434 66.8207 32.2191C66.7253 32.387 64.9621 35.0018 62.8891 38.0483L59.1481 43.5656L55.0021 44.7411C52.7384 45.3888 50.0459 46.1804 49.0451 46.4922L47.1866 47.0679V64.0757H43.8507V57.5269C43.8507 51.5538 43.803 50.8581 43.3503 49.2749L42.8261 47.5477L44.4225 45.0529L45.9952 42.5581L51.0467 41.5026C54.1681 40.8549 56.2411 40.3272 56.4794 40.0873C56.6938 39.8714 58.5048 37.5205 60.5063 34.8818C64.4379 29.6044 64.6523 29.4365 66.0105 30.1321ZM37.6554 45.7486C39.9191 47.6916 41.0152 48.8191 41.3488 49.5148C41.7777 50.4263 41.8253 51.098 41.8968 57.287L41.9683 64.0757H35.2727V56.7832C35.2727 48.8671 35.2488 48.7471 33.9621 49.059L33.3664 49.2029V64.0757H28.6009V55.8477C28.6009 46.5642 28.6724 46.0125 30.245 44.4292C31.1743 43.4937 32.2704 43.0379 33.6047 42.9899C34.3434 42.9899 34.8438 43.3257 37.6554 45.7486ZM101.037 68.9454C101.037 70.9124 100.942 71.9919 100.751 72.1838C100.346 72.5916 11.4211 72.5916 11.016 72.1838C10.8254 71.9919 10.7301 70.9124 10.7301 68.9454V65.9948H101.037V68.9454ZM68.7745 77.3653C69.0605 80.4838 69.0366 80.8916 68.3456 81.8991C67.3687 83.2665 67.464 83.2665 55.8837 83.2665C44.6132 83.2665 44.5655 83.2665 43.5409 82.115C42.8261 81.3234 42.6831 80.3159 42.9452 77.5812C43.0644 76.1659 43.2073 74.8465 43.2788 74.6786C43.3503 74.4387 45.9952 74.3908 55.9314 74.4387L68.5124 74.5107L68.7745 77.3653Z" fill="#353535"/>
<path d="M53.5038 68.6051C52.658 69.4454 53.641 70.1493 55.6756 70.1493C57.0015 70.1493 57.3444 70.0585 57.7102 69.6724C58.0302 69.3318 58.0759 69.1274 57.893 68.8322C57.573 68.3326 53.961 68.151 53.5038 68.6051Z" fill="#353535"/>
<path d="M51.07 18.7043C50.8675 18.914 50.8 21.3373 50.8 28.1411C50.8 37.0419 50.8225 37.2982 51.25 37.5312C51.565 37.7177 51.835 37.7177 52.15 37.5312C52.5775 37.2982 52.6 37.0419 52.6 28.1411C52.6 18.7043 52.5775 18.4247 51.7 18.4247C51.4975 18.4247 51.2275 18.5412 51.07 18.7043Z" fill="#353535"/>
<path d="M36.1124 21.1717C34.5643 21.6513 33.1591 22.5625 31.8969 23.9053C26.4667 29.756 29.6819 39.1794 37.5652 40.5462C42.9 41.4574 48.1397 37.5489 48.9018 32.0819C49.5686 27.3821 46.7821 22.8262 42.3046 21.2676C40.7328 20.7401 37.6604 20.6682 36.1124 21.1717ZM41.733 23.09C43.9718 23.8813 45.8533 25.7516 46.663 28.0535C46.8774 28.629 47.0441 29.8519 47.0441 30.811C47.0441 33.8083 45.3293 36.5658 42.5428 37.9566C41.352 38.556 40.8995 38.6519 39.1371 38.6519C36.684 38.6519 35.4455 38.1724 33.6593 36.4939C31.9207 34.8633 31.1824 33.1609 31.1586 30.7631C31.1586 29.0606 31.2538 28.653 31.9445 27.2382C32.8733 25.344 34.35 23.9053 36.1362 23.2339C37.6128 22.6584 40.3279 22.5864 41.733 23.09Z" fill="#353535"/>
<path d="M50.9439 50.6172C50.872 50.8277 50.8 52.3717 50.8 54.0092C50.8 56.7696 50.848 57.0503 51.2558 57.2843C51.5677 57.448 59.4126 57.5182 74.9825 57.5182C100.149 57.5182 98.925 57.5884 98.7331 56.3018L98.6611 55.7637L75.7022 55.6935L52.7432 55.6467L52.5993 50.3833L51.8556 50.3131C51.3278 50.2663 51.0639 50.3599 50.9439 50.6172Z" fill="#353535"/>
<path fill-rule="evenodd" clip-rule="evenodd" d="M83.5 47.708C89.8822 47.708 95.056 42.4065 95.056 35.8667C95.056 29.3269 89.8822 24.0254 83.5 24.0254C77.1178 24.0254 71.944 29.3269 71.944 35.8667C71.944 42.4065 77.1178 47.708 83.5 47.708ZM83.5 49.7C90.9558 49.7 97 43.5066 97 35.8667C97 28.2268 90.9558 22.0334 83.5 22.0334C76.0442 22.0334 70 28.2268 70 35.8667C70 43.5066 76.0442 49.7 83.5 49.7Z" fill="#F9CE37"/>
<path fill-rule="evenodd" clip-rule="evenodd" d="M84.5269 35.135V23.8377H82.6V35.9739L91.4548 44.8884L92.8 43.4639L84.5269 35.135Z" fill="#F9CE37"/>
<path fill-rule="evenodd" clip-rule="evenodd" d="M21.5055 20.9951H6.12884C4.39072 20.9951 2.98728 22.3878 3.00714 24.0929L3.11291 33.1718C3.13245 34.8496 4.52434 36.1996 6.2346 36.1996H18.7035C20.695 36.1996 22.5813 37.0766 23.8424 38.5887L24.7809 39.7141L24.6272 24.0284C24.6107 22.3484 23.2179 20.9951 21.5055 20.9951ZM6.12884 19.0261C3.27335 19.0261 0.96771 21.3141 1.00034 24.1154L1.1061 33.1943C1.13821 35.9507 3.42489 38.1686 6.2346 38.1686H18.7035C20.093 38.1686 21.4092 38.7804 22.2891 39.8355L24.0277 41.9203C24.5317 42.5246 25.418 42.6608 26.0862 42.2366C26.5357 41.9512 26.8051 41.4599 26.7999 40.9346L26.634 24.0095C26.607 21.2495 24.3188 19.0261 21.5055 19.0261H6.12884Z" fill="#F9CE37"/>
<path fill-rule="evenodd" clip-rule="evenodd" d="M6.4 24.7399C6.4 24.2416 6.83798 23.8377 7.37826 23.8377H20.4217C20.962 23.8377 21.4 24.2416 21.4 24.7399C21.4 25.2382 20.962 25.6421 20.4217 25.6421H7.37826C6.83798 25.6421 6.4 25.2382 6.4 24.7399Z" fill="#F9CE37"/>
<path fill-rule="evenodd" clip-rule="evenodd" d="M6.4 28.95C6.4 28.4518 6.83798 28.0479 7.37826 28.0479H20.4217C20.962 28.0479 21.4 28.4518 21.4 28.95C21.4 29.4483 20.962 29.8522 20.4217 29.8522H7.37826C6.83798 29.8522 6.4 29.4483 6.4 28.95Z" fill="#F9CE37"/>
</svg>
