<svg width="84" height="88" viewBox="0 0 84 88" fill="none" xmlns="http://www.w3.org/2000/svg">
<path d="M13.8566 3.52605C12.9994 3.84356 12.6639 4.12372 12.3098 4.77743C12.0862 5.207 12.0489 6.83193 12.0489 14.1908V23.0625H8.60126C4.83679 23.0625 4.24043 23.1746 3.21545 24.1458C2.91727 24.426 2.52592 24.9863 2.33956 25.3972C2.00411 26.1069 1.98547 27.1902 1.98547 50.4248C1.98547 69.4757 2.04138 74.7987 2.22774 75.1723C2.35819 75.4151 2.74955 75.826 3.085 76.0501L3.71862 76.4797H16.5775H29.4363L29.3059 77.1707C29.25 77.563 29.1382 78.8517 29.0822 80.047C28.9518 82.1576 28.9704 82.251 29.4363 83.0914L29.9209 83.9506H26.0259C22.746 83.9506 22.0937 83.988 21.8515 84.2494C21.4788 84.6043 21.4788 84.9592 21.8142 85.2393C22.0006 85.3888 27.3491 85.4261 41.6988 85.4074L61.3412 85.3514L61.3971 84.9218C61.5276 84.0066 61.3039 83.9506 57.1295 83.9506H53.2532L53.7377 82.886C54.2222 81.8401 54.2222 81.8214 53.9986 79.5801C53.8868 78.3287 53.7936 77.1334 53.7936 76.8906V76.4797H66.4661C80.2754 76.4797 80.0145 76.4983 80.7227 75.4337C81.0954 74.9108 81.0954 74.3878 81.0954 50.4248V25.9575L80.7823 24.9303C79.9477 22.7824 78.9709 23.0625 74.4796 23.0625H70.9388V14.2655C70.9388 4.33202 70.9941 4.4556 69.6895 3.65247L69.0938 3.48259L41.7734 3.32059C19.3356 3.28324 14.4343 3.32059 13.8566 3.52605ZM69.0938 5.09649C69.4106 5.48872 69.4479 6.08484 69.4479 9.9137V14.0974H41.4938H13.5398V9.83898C13.5398 5.30039 13.5584 5.22568 14.4716 4.88949C14.6207 4.83346 26.9018 4.7961 41.7361 4.81478L68.7397 4.85213L69.0938 5.09649ZM69.4479 37.0518C69.4479 51.7696 69.392 58.6989 69.2429 59.0537C68.982 59.7635 68.1806 60.6039 67.4538 60.9028C66.9506 61.1269 62.6085 61.1643 41.4379 61.1643H16.0184L15.217 60.7347C14.658 60.4358 14.2666 60.0436 13.9684 59.4833L13.5398 58.6802V37.1265V15.5916H41.4938H69.4479V37.0518ZM12.0489 26.798V29.0393H9.01125C6.90538 29.0393 5.89904 29.114 5.74995 29.2634C5.58223 29.4315 5.52632 34.0074 5.52632 48.6878V67.8881H4.50134H3.47636V47.1563C3.47636 24.2392 3.40181 25.6773 4.65042 24.9303C5.19087 24.5941 5.60086 24.5567 8.65717 24.5567H12.0489V26.798ZM78.4863 24.9303C79.7536 25.7147 79.6977 24.5567 79.6977 47.343V67.8881H78.6727H77.6477V48.7625C77.6477 31.6167 77.6105 29.5996 77.3495 29.3381C77.1073 29.0953 76.5296 29.0393 73.9951 29.0393H70.9388V26.798V24.5567H74.4051C77.5732 24.5567 77.9459 24.5941 78.4863 24.9303ZM12.0489 44.7656C12.0489 58.6989 12.0676 59.035 12.4403 59.8568C12.9435 60.9775 13.633 61.6872 14.7511 62.2102L15.683 62.6585H41.4938C67.0625 62.6585 67.3047 62.6398 68.1433 62.2662C69.1683 61.7993 69.9138 61.1082 70.4356 60.137C70.8456 59.3899 70.8456 59.3339 70.9015 44.9523L70.9388 30.5335H73.5478H76.1568V49.2108V67.8881H41.587H7.0172V49.2108V30.5335H9.53306H12.0489V44.7656ZM79.6604 71.7917C79.6977 73.622 79.6418 74.1824 79.4181 74.5372L79.1386 74.9855H41.6616C16.1861 74.9855 4.07271 74.9294 3.83044 74.7987C3.51363 74.6119 3.47636 74.3691 3.47636 71.9971V69.3823L41.5497 69.4196L79.6045 69.4757L79.6604 71.7917ZM52.4705 79.0945C52.7314 82.1015 52.6009 82.6805 51.3896 83.5023L50.7187 83.9506H41.587C32.8095 83.9506 32.4367 83.9319 31.8404 83.577C31.5049 83.3716 31.0763 82.942 30.8527 82.6058C30.5172 82.0455 30.4799 81.8027 30.5731 80.1217C30.629 79.0945 30.7409 77.8618 30.7968 77.3575L30.9272 76.4797H41.587H52.2468L52.4705 79.0945Z" fill="#353535"/>
<path d="M39.8352 71.6983C39.7048 71.8477 39.6303 72.1653 39.6675 72.4081C39.7234 72.819 39.7793 72.8376 41.4752 72.8376C42.9288 72.8376 43.2643 72.7816 43.432 72.5015C43.5811 72.2773 43.5811 72.0906 43.432 71.8477C43.1525 71.3995 40.1893 71.2688 39.8352 71.6983Z" fill="#353535"/>
<path fill-rule="evenodd" clip-rule="evenodd" d="M18.9678 21.0656V39.7528H37.7662V21.0656H18.9678ZM18.121 19.5366C17.7469 19.5366 17.4436 19.8409 17.4436 20.2162V40.6023C17.4436 40.9776 17.7469 41.2818 18.121 41.2818H38.6129C38.9871 41.2818 39.2903 40.9776 39.2903 40.6023V20.2162C39.2903 19.8409 38.9871 19.5366 38.6129 19.5366H18.121Z" fill="#F9CE37"/>
<path fill-rule="evenodd" clip-rule="evenodd" d="M43.5242 21.0656V25.8223H63.6775V21.0656H43.5242ZM42.6774 19.5366C42.3033 19.5366 42 19.8409 42 20.2162V26.6718C42 27.0471 42.3033 27.3513 42.6775 27.3513H64.5242C64.8984 27.3513 65.2016 27.0471 65.2016 26.6718V20.2162C65.2016 19.8409 64.8984 19.5366 64.5242 19.5366H42.6774Z" fill="#F9CE37"/>
<path fill-rule="evenodd" clip-rule="evenodd" d="M18.9678 44.3397V51.6448H63.6774V44.3397H18.9678ZM18.121 42.8108C17.7469 42.8108 17.4436 43.115 17.4436 43.4903V52.4942C17.4436 52.8695 17.7469 53.1737 18.121 53.1737H64.5242C64.8983 53.1737 65.2016 52.8695 65.2016 52.4942V43.4903C65.2016 43.115 64.8983 42.8108 64.5242 42.8108H18.121Z" fill="#F9CE37"/>
<path fill-rule="evenodd" clip-rule="evenodd" d="M17.4436 55.2973C17.4436 54.8751 17.7848 54.5328 18.2057 54.5328H64.4395C64.8604 54.5328 65.2016 54.8751 65.2016 55.2973C65.2016 55.7195 64.8604 56.0618 64.4395 56.0618H18.2057C17.7848 56.0618 17.4436 55.7195 17.4436 55.2973Z" fill="#F9CE37"/>
<path fill-rule="evenodd" clip-rule="evenodd" d="M41.9153 30.9189C41.9153 30.4967 42.2565 30.1544 42.6774 30.1544H64.3549C64.7758 30.1544 65.117 30.4967 65.117 30.9189C65.117 31.3411 64.7758 31.6834 64.3549 31.6834H42.6774C42.2565 31.6834 41.9153 31.3411 41.9153 30.9189Z" fill="#F9CE37"/>
<path fill-rule="evenodd" clip-rule="evenodd" d="M41.9153 33.637C41.9153 33.2148 42.2565 32.8726 42.6774 32.8726H64.3549C64.7758 32.8726 65.117 33.2148 65.117 33.637C65.117 34.0592 64.7758 34.4015 64.3549 34.4015H42.6774C42.2565 34.4015 41.9153 34.0592 41.9153 33.637Z" fill="#F9CE37"/>
<path fill-rule="evenodd" clip-rule="evenodd" d="M41.9153 36.3552C41.9153 35.933 42.2565 35.5907 42.6774 35.5907H64.3549C64.7758 35.5907 65.117 35.933 65.117 36.3552C65.117 36.7774 64.7758 37.1197 64.3549 37.1197H42.6774C42.2565 37.1197 41.9153 36.7774 41.9153 36.3552Z" fill="#F9CE37"/>
<path fill-rule="evenodd" clip-rule="evenodd" d="M31.3307 10.7027C31.9854 10.7027 32.5161 10.1702 32.5161 9.51346C32.5161 8.85669 31.9854 8.32427 31.3307 8.32427C30.6759 8.32427 30.1452 8.85669 30.1452 9.51346C30.1452 10.1702 30.6759 10.7027 31.3307 10.7027ZM31.3307 11.5521C32.453 11.5521 33.3629 10.6394 33.3629 9.51346C33.3629 8.38757 32.453 7.47485 31.3307 7.47485C30.2083 7.47485 29.2984 8.38757 29.2984 9.51346C29.2984 10.6394 30.2083 11.5521 31.3307 11.5521Z" fill="#353535"/>
<path fill-rule="evenodd" clip-rule="evenodd" d="M25.4033 10.7027C26.058 10.7027 26.5887 10.1702 26.5887 9.51346C26.5887 8.85669 26.058 8.32427 25.4033 8.32427C24.7485 8.32427 24.2178 8.85669 24.2178 9.51346C24.2178 10.1702 24.7485 10.7027 25.4033 10.7027ZM25.4033 11.5521C26.5256 11.5521 27.4355 10.6394 27.4355 9.51346C27.4355 8.38757 26.5256 7.47485 25.4033 7.47485C24.2809 7.47485 23.371 8.38757 23.371 9.51346C23.371 10.6394 24.2809 11.5521 25.4033 11.5521Z" fill="#353535"/>
<path fill-rule="evenodd" clip-rule="evenodd" d="M19.4758 10.7027C20.1306 10.7027 20.6613 10.1702 20.6613 9.51346C20.6613 8.85669 20.1306 8.32427 19.4758 8.32427C18.8211 8.32427 18.2903 8.85669 18.2903 9.51346C18.2903 10.1702 18.8211 10.7027 19.4758 10.7027ZM19.4758 11.5521C20.5982 11.5521 21.5081 10.6394 21.5081 9.51346C21.5081 8.38757 20.5982 7.47485 19.4758 7.47485C18.3534 7.47485 17.4436 8.38757 17.4436 9.51346C17.4436 10.6394 18.3534 11.5521 19.4758 11.5521Z" fill="#353535"/>
</svg>
