<svg width="30" height="30" viewBox="0 0 30 30" fill="none" xmlns="http://www.w3.org/2000/svg">
<g clip-path="url(#clip0_1_340)">
<g clip-path="url(#clip1_1_340)">
<path fill-rule="evenodd" clip-rule="evenodd" d="M11.3267 20.9018V11.8592H8.37453V20.9017H11.3267V20.9018ZM9.85092 10.625C10.8801 10.625 11.5211 9.93007 11.5211 9.06234C11.5017 8.17533 10.8801 7.5 9.87022 7.5C8.8602 7.50003 8.20001 8.17536 8.20001 9.06237C8.20001 9.9301 8.84074 10.625 9.83148 10.625L9.85092 10.625ZM12.9606 20.9018C12.9606 20.9018 12.9993 12.7076 12.9606 11.8592H15.9132V13.1706H15.8936C16.2818 12.5535 16.9813 11.6469 18.5738 11.6469C20.5167 11.6469 21.973 12.9393 21.973 15.7168V20.9018H19.0209V16.0643C19.0209 14.8487 18.5938 14.0193 17.5251 14.0193C16.7097 14.0193 16.2237 14.5785 16.0103 15.119C15.9322 15.3114 15.9132 15.5816 15.9132 15.8519V20.9018H12.9606Z" fill="#F5F5F5"/>
</g>
<circle cx="15" cy="15" r="14.5" stroke="#F5F5F5"/>
</g>
<defs>
<clipPath id="clip0_1_340">
<rect width="30" height="30" fill="white"/>
</clipPath>
<clipPath id="clip1_1_340">
<rect width="13.8" height="13" fill="white" transform="translate(8.20001 7.5)"/>
</clipPath>
</defs>
</svg>
