<svg width="30" height="45" viewBox="0 0 30 45" fill="none" xmlns="http://www.w3.org/2000/svg">
<path d="M21.832 13.616V21.848H26.144V12.608C26.144 6.52269 22.392 3.48002 14.888 3.48002C7.38397 3.48002 3.63197 6.52269 3.63197 12.608V32.992C3.63197 39.0774 7.38397 42.12 14.888 42.12C22.392 42.12 26.144 39.0774 26.144 32.992V31.592H29.056V32.992C29.056 36.688 27.88 39.544 25.528 41.56C23.176 43.6134 19.648 44.64 14.944 44.64C10.24 44.64 6.6933 43.6134 4.30397 41.56C1.91464 39.544 0.719971 36.688 0.719971 32.992V12.608C0.719971 8.91202 1.89597 6.05602 4.24797 4.04002C6.59997 1.98669 10.1093 0.960022 14.776 0.960022C19.48 0.960022 23.0266 1.98669 25.416 4.04002C27.8426 6.05602 29.056 8.91202 29.056 12.608V24.704H21.832V31.928C21.832 36.072 19.424 38.144 14.608 38.144C9.79197 38.144 7.38397 36.072 7.38397 31.928V27.84C7.38397 25.8987 7.88797 24.424 8.89597 23.416C9.90397 22.3707 11.584 21.848 13.936 21.848H18.248V13.448C18.248 12.4774 17.9493 11.712 17.352 11.152C16.7546 10.592 15.896 10.312 14.776 10.312C12.536 10.312 11.416 11.3574 11.416 13.448V18.32H7.77597V13.616C7.77597 9.47202 10.1093 7.40002 14.776 7.40002C19.48 7.40002 21.832 9.47202 21.832 13.616ZM18.248 32.096V24.704H13.656C11.9386 24.704 11.08 25.6934 11.08 27.672V32.152C11.08 34.2054 12.2746 35.232 14.664 35.232C17.0533 35.232 18.248 34.1867 18.248 32.096Z" fill="#F9CE37"/>
</svg>
