<svg width="14" height="16" viewBox="0 0 14 16" fill="none" xmlns="http://www.w3.org/2000/svg">
<path d="M4.92077 15.5056C4.92077 15.5056 4.92077 15.5056 9.9268 15.5055C9.9268 15.5055 9.9268 15.5055 4.92077 15.5056ZM4.92077 15.5056C9.9268 15.5055 9.9268 15.5055 9.9268 15.5055C9.87944 15.4069 9.84697 15.2989 9.85006 15.1762C9.86588 14.5528 9.85006 13.098 9.85006 12.5638C9.85006 11.647 9.27601 10.9968 9.27601 10.9968C9.27601 10.9968 13.7787 11.0481 13.7787 6.19301C13.7787 4.31974 12.81 3.34398 12.81 3.34398C12.81 3.34398 13.3189 1.34416 12.6336 0.495957C11.8657 0.41191 10.4902 1.23719 9.90288 1.62288C9.90288 1.62288 8.97244 1.23717 7.42428 1.23717C5.87612 1.23717 4.94568 1.62288 4.94568 1.62288C4.35836 1.23719 2.9829 0.412426 2.21494 0.495957C1.53016 1.34416 2.03854 3.34398 2.03854 3.34398C2.03854 3.34398 1.06982 4.31874 1.06982 6.192C1.06982 11.0471 5.57256 10.9968 5.57256 10.9968C5.57256 10.9968 5.05986 11.5866 5.00847 12.4319C4.70757 12.5391 4.29741 12.6655 3.90621 12.6655C2.96221 12.6655 2.24503 11.739 1.98173 11.31C1.72251 10.8867 1.19107 10.5315 0.695092 10.5315C0.368519 10.5315 0.20874 10.6973 0.20874 10.886C0.20874 11.0747 0.667083 11.2061 0.969163 11.5557C1.60598 12.2931 1.59418 13.9516 3.86335 13.9516C4.13165 13.9516 4.61374 13.8891 4.99851 13.8357C4.99638 14.3563 4.99039 14.8555 4.99851 15.1752C5.0015 15.2982 4.96842 15.4067 4.92077 15.5056Z" fill="#F5F5F5"/>
</svg>
