<svg width="79" height="88" viewBox="0 0 79 88" fill="none" xmlns="http://www.w3.org/2000/svg">
<path fill-rule="evenodd" clip-rule="evenodd" d="M64.7162 15.2673L64.7162 11.3752L66.1525 11.3752L66.1525 16.3309L65.637 16.481C63.9301 16.978 62.4902 17.405 61.3451 17.8996C60.1957 18.3961 59.4472 18.9188 59.033 19.5455C58.6389 20.1418 58.479 20.939 58.7516 22.1545C59.0288 23.3903 59.7416 24.9973 61.0239 27.126L61.308 27.5977L55.8118 33.1236L54.7883 32.126L59.5087 27.38C58.3634 25.4201 57.6517 23.8105 57.3494 22.4627C57.0186 20.9874 57.1679 19.7703 57.8311 18.7669C58.4742 17.794 59.5312 17.1318 60.7707 16.5964C61.8864 16.1145 63.2345 15.7013 64.7162 15.2673Z" fill="#F9CE37"/>
<path fill-rule="evenodd" clip-rule="evenodd" d="M13.4859 15.2681L13.4859 11.3752L12.0495 11.3752L12.0495 16.3302L12.5642 16.4807C14.2631 16.9777 15.6958 17.4047 16.8351 17.8991C17.9785 18.3953 18.723 18.9177 19.1351 19.5442C19.5277 20.1409 19.6869 20.939 19.4154 22.1552C19.1395 23.3913 18.4299 24.9986 17.1537 27.1273L18.3888 27.853C19.6938 25.6765 20.4932 23.9166 20.8179 22.462C21.1471 20.9874 20.9985 19.7712 20.3387 18.7682C19.6986 17.7951 18.6461 17.1325 17.4118 16.5969C16.3014 16.115 14.9599 15.7019 13.4859 15.2681Z" fill="#F9CE37"/>
<path fill-rule="evenodd" clip-rule="evenodd" d="M23.3986 32.0846L17.8299 26.4405L16.8024 27.434L23.1173 33.8345L23.5906 33.5898C23.6691 33.5492 23.7472 33.5087 23.8251 33.4684C25.0577 32.8304 26.2168 32.2305 27.3104 31.8015C28.4777 31.3435 29.4827 31.1175 30.3389 31.2109C31.151 31.2995 31.8973 31.6825 32.569 32.6108C33.2623 33.5691 33.8751 35.1113 34.3254 37.4952L35.7372 37.2338C35.2699 34.7595 34.6058 32.984 33.7368 31.7828C32.846 30.5517 31.7444 29.9337 30.4963 29.7975C29.2923 29.6662 28.025 29.9916 26.7813 30.4796C25.6848 30.9097 24.5385 31.4949 23.3986 32.0846Z" fill="#F9CE37"/>
<path fill-rule="evenodd" clip-rule="evenodd" d="M42.4681 37.1415L34.3704 37.1415L34.3704 38.5634L43.5554 38.5634L43.7025 38.0445C44.1001 36.6418 44.4657 35.4548 44.8598 34.4725C45.2549 33.4877 45.6629 32.7504 46.1258 32.2238C46.5765 31.7109 47.0836 31.3922 47.7124 31.2425C48.3575 31.0888 49.1817 31.101 50.2752 31.3437L50.5894 29.9562C49.3687 29.6853 48.3075 29.6382 47.3764 29.86C46.4289 30.0857 45.6688 30.5774 45.0421 31.2905C44.4275 31.9899 43.9475 32.8943 43.5249 33.9476C43.154 34.872 42.8149 35.9434 42.4681 37.1415Z" fill="#F9CE37"/>
<path d="M17.9085 70.9415C17.7165 71.0798 17.6117 71.3391 17.6641 71.5984C17.7165 71.9959 17.7863 72.0132 18.9563 72.0651C19.8818 72.0997 20.2485 72.0478 20.4056 71.8577C20.7025 71.5119 20.4929 70.9415 20.0215 70.8205C19.3579 70.6477 18.2229 70.7168 17.9085 70.9415Z" fill="#353535"/>
<path d="M25.2426 70.9416C25.0506 71.0799 24.9458 71.3392 24.9982 71.5985C25.0506 71.996 25.1029 72.0133 26.3427 72.0133C27.4079 72.0133 27.6699 71.9614 27.827 71.7022C28.281 70.9589 26.0983 70.3193 25.2426 70.9416Z" fill="#353535"/>
<path d="M32.5767 70.9416C32.3846 71.0799 32.2799 71.3392 32.3323 71.5985C32.3846 71.996 32.437 72.0133 33.6768 72.0133C34.742 72.0133 35.004 71.9614 35.1611 71.7022C35.6151 70.9589 33.4324 70.3193 32.5767 70.9416Z" fill="#353535"/>
<path d="M39.9108 70.9416C39.7187 71.0799 39.614 71.3392 39.6664 71.5985C39.7187 71.996 39.7711 72.0133 41.0109 72.0133C42.0761 72.0133 42.3381 71.9614 42.4952 71.7022C42.9492 70.9589 40.7665 70.3193 39.9108 70.9416Z" fill="#353535"/>
<path d="M12.6874 75.142C12.4604 75.384 12.5651 76.2137 12.8445 76.3174C13.2461 76.473 14.8876 76.4384 15.1495 76.2655C15.2892 76.1791 15.3591 75.9025 15.3241 75.626C15.2718 75.1247 15.2543 75.1247 14.0494 75.0728C13.3684 75.0556 12.7572 75.0728 12.6874 75.142Z" fill="#353535"/>
<path d="M20.3184 75.4704C20.1263 76.2137 20.493 76.4384 21.7852 76.3866C23.0425 76.3347 23.479 76.0063 23.1123 75.4186C22.9552 75.1939 22.6408 75.1074 21.6804 75.0729C20.4755 75.021 20.4231 75.0383 20.3184 75.4704Z" fill="#353535"/>
<path d="M28.1413 75.2457C27.8794 75.505 27.8794 75.9544 28.1413 76.2137C28.2636 76.3347 28.8224 76.4211 29.4335 76.4211C30.6035 76.4211 30.9702 76.1964 30.8654 75.5223C30.8131 75.1593 30.7083 75.1247 29.5907 75.0729C28.7874 75.0383 28.2985 75.0902 28.1413 75.2457Z" fill="#353535"/>
<path d="M35.912 75.142C35.685 75.384 35.7898 76.2137 36.0691 76.3174C36.4708 76.473 38.1122 76.4384 38.3741 76.2655C38.5138 76.1791 38.5837 75.9025 38.5488 75.626C38.4964 75.1247 38.4789 75.1247 37.274 75.0728C36.593 75.0556 35.9818 75.0728 35.912 75.142Z" fill="#353535"/>
<path d="M2.29739 19.5865C2.00054 19.8803 2.00054 39.9661 2.29739 40.2599C2.57679 40.5365 2.87365 40.5192 3.20543 40.1908C3.4499 39.9488 3.48482 38.7906 3.48482 29.9232C3.48482 21.0557 3.4499 19.8976 3.20543 19.6556C2.87365 19.3272 2.57679 19.3099 2.29739 19.5865Z" fill="#353535"/>
<path d="M75.0097 37.6325C74.7827 37.8572 74.7303 38.3931 74.7303 40.813C74.7303 43.233 74.7827 43.7689 75.0097 43.9936C75.1494 44.1491 75.3764 44.2701 75.4987 44.2701C76.0575 44.2701 76.1273 43.8553 76.1273 40.813C76.1273 37.7708 76.0575 37.3559 75.4987 37.3559C75.3764 37.3559 75.1494 37.4769 75.0097 37.6325Z" fill="#353535"/>
<path d="M48.7467 68.1068C48.607 68.176 48.5371 68.4698 48.572 68.7464L48.6244 69.2477H51.2263C53.5138 69.2477 53.8456 69.2131 54.0202 68.9365C54.1599 68.7291 54.1599 68.5563 54.0202 68.3315C53.8456 68.0723 53.4964 68.0377 51.4009 68.0031C50.0738 67.9686 48.8689 68.0204 48.7467 68.1068Z" fill="#353535"/>
<path fill-rule="evenodd" clip-rule="evenodd" d="M53.2541 10.7439C53.6504 10.7596 53.9588 11.0904 53.9429 11.4828C53.7364 16.5707 51.8249 20.3906 49.0142 22.9221C46.212 25.4459 42.5612 26.6484 38.94 26.5915C31.6811 26.4774 24.4672 21.2902 24.2588 11.4692C24.2504 11.0766 24.5651 10.7517 24.9617 10.7435C25.3582 10.7352 25.6865 11.0468 25.6948 11.4393C25.8854 20.419 32.3967 25.0666 38.9628 25.1698C42.2541 25.2215 45.5407 24.1282 48.0476 21.8704C50.5459 19.6202 52.3151 16.1726 52.5077 11.4257C52.5236 11.0334 52.8578 10.7281 53.2541 10.7439Z" fill="#F9CE37"/>
<path d="M6.68039 3.82204C6.38354 3.9949 6.03429 4.30603 5.94698 4.49618C5.80729 4.73817 5.7549 12.4302 5.7549 29.5774C5.7549 56.4045 5.70251 55.0044 6.68039 55.5402C6.95979 55.7131 8.82824 55.7822 14.0669 55.8514L21.0866 55.9378L19.6722 60.4666C18.5197 64.2175 18.3102 65.0472 18.5023 65.2719C18.6943 65.4967 20.3358 65.5312 32.1402 65.5312H45.5686V66.7412V67.9512H31.2845C16.0401 67.9512 16.0576 67.9512 14.8701 68.7982C14.3637 69.1439 9.03778 75.5222 8.09483 76.8878C7.67573 77.5101 7.65827 77.6311 7.71066 79.5843L7.76305 81.6413L8.40914 82.229L9.0727 82.8167H27.3032H45.5511L45.6035 84.2168C45.6384 85.3404 45.7257 85.6688 45.9702 85.8244C46.1797 85.9627 46.3544 85.9627 46.5814 85.8244C46.8608 85.6515 46.8782 84.9083 46.9306 75.0555L46.9655 64.4941H56.5697H66.1739V75.1247V85.7552L66.6453 85.859C67.3264 86.0318 67.5708 85.5824 67.5708 84.0786V82.8167H70.1902C74.1191 82.8167 74.3811 82.592 74.3811 79.325C74.3811 77.7521 74.3287 77.2854 74.0842 76.9396C73.6127 76.2655 68.6186 70.1637 68.0772 69.5933L67.5708 69.0575V66.3782C67.5708 63.4397 67.501 63.1631 66.6104 63.0767L66.0866 63.0248V60.0863C66.0866 58.4615 66.1564 56.8539 66.2262 56.4909L66.366 55.8514H68.5487C70.033 55.8514 70.9061 55.7649 71.3252 55.6094C72.5475 55.0908 72.4602 57.0095 72.4602 29.5428C72.4602 7.36556 72.4253 4.72089 72.1808 4.37518C71.5173 3.42448 73.5953 3.47633 39.0726 3.47633C7.86782 3.47633 7.22172 3.47633 6.68039 3.82204ZM70.8537 5.06659C70.976 5.18759 71.0633 5.68887 71.0633 6.19015V7.10628H39.1076H7.15187V6.19015C7.15187 5.68887 7.23918 5.18759 7.36142 5.06659C7.65827 4.77274 70.5569 4.77274 70.8537 5.06659ZM71.0633 27.3303V46.1715H69.2472H67.4137L67.3613 42.4032C67.3089 38.8079 67.2914 38.6177 66.8898 37.9954C66.2263 36.9237 64.7944 36.4052 63.6942 36.82C63.3101 36.9583 63.2402 36.9065 62.891 36.1459C62.3322 34.9359 61.5988 34.5383 60.1494 34.6248C59.1017 34.6939 59.0319 34.6593 58.9271 34.2963C58.6826 33.2938 56.8666 32.0147 56.0284 32.2567C55.8537 32.3085 55.5394 32.3777 55.3648 32.4295C55.0505 32.5159 55.033 32.3949 54.9632 30.4071C54.9108 28.5403 54.8584 28.1946 54.4917 27.555C54.0202 26.7599 52.99 26.1203 52.1518 26.1203C51.0866 26.1203 49.9341 26.9846 49.4975 28.1081C49.4277 28.2983 49.3928 32.1529 49.3928 36.6817C49.4277 44.1664 49.3928 44.9442 49.1308 45.2035C48.6419 45.7048 48.3101 45.4455 47.4719 43.9244C46.075 41.3661 44.9225 40.5537 43.3159 40.9858C41.4126 41.4871 40.6966 43.2848 41.6396 45.2553L42.0587 46.1715H24.614H7.15187V27.3303V8.48912H39.1076H71.0633V27.3303ZM52.6233 27.676C53.4964 27.9871 53.5138 28.1427 53.6011 35.6273L53.6884 42.628L54.0901 42.6798C54.9632 42.8008 54.9981 42.628 54.9981 38.4449V34.5729L55.4347 34.1581C55.9934 33.5876 56.657 33.6049 57.1809 34.1754C57.6174 34.6421 57.6174 34.6421 57.6174 38.4794C57.6174 42.6107 57.6523 42.8008 58.5255 42.6798C58.9271 42.628 58.9271 42.5934 59.0144 39.7413C59.1017 36.9929 59.1192 36.8373 59.5208 36.4225C60.1494 35.7656 61.0924 35.8348 61.5115 36.5608C61.6512 36.8027 61.7559 38.3239 61.8083 41.3143C61.8782 45.2553 61.9306 45.7221 62.21 45.8949C62.4195 46.0332 62.5941 46.0332 62.8211 45.8949C63.0831 45.7221 63.1355 45.2899 63.2053 42.2995L63.2926 38.877L63.7816 38.4622C64.3229 38.0127 64.6197 37.9609 65.1611 38.2374C65.9294 38.6523 65.9992 39.2227 65.9992 45.5665C65.9992 51.3744 65.9818 51.5646 65.5802 52.982C64.9341 55.1772 64.6023 57.7528 64.6023 60.5876V63.1113H57.1809H49.7595L49.7245 59.464C49.6722 56.4218 49.6198 55.7822 49.4102 55.6612C49.2705 55.5921 48.7641 55.4019 48.2752 55.2291C47.0528 54.7969 45.7432 53.466 45.2368 52.135C45.0098 51.5646 44.5383 49.9224 44.1716 48.505C43.8049 47.0703 43.3159 45.4628 43.054 44.8924C42.5127 43.6651 42.4952 43.4058 42.9667 42.8181C43.2461 42.4724 43.4731 42.3687 43.997 42.3687C44.5558 42.3687 44.7478 42.4724 45.2019 43.0082C45.4987 43.3539 46.0226 44.2182 46.3718 44.9269C47.1401 46.4826 47.7339 46.9148 48.8689 46.811C49.4277 46.7419 49.7769 46.5863 50.1786 46.1888L50.7199 45.6529L50.8072 36.9929L50.8945 28.3329L51.3834 27.918C51.9422 27.4513 52.0121 27.434 52.6233 27.676ZM43.0191 49.8014C43.3334 50.9941 43.8223 52.498 44.1367 53.1548C44.4335 53.7944 44.6954 54.3648 44.6954 54.3994C44.6954 54.4339 36.3485 54.4685 26.1332 54.4685C11.9365 54.4685 7.51858 54.4167 7.36142 54.2611C7.22172 54.1228 7.15187 53.103 7.15187 50.804V47.5543L24.8235 47.5889L42.4778 47.6407L43.0191 49.8014ZM71.0633 50.804C71.0633 53.103 70.9934 54.1228 70.8537 54.2611C70.6267 54.4858 66.6977 54.5722 66.6977 54.3302C66.6977 54.2611 66.8549 53.708 67.047 53.0857C67.3089 52.2214 67.3962 51.4608 67.3962 49.7496V47.5543H69.2297H71.0633V50.804ZM47.2973 56.3872L48.3625 56.9231L48.3276 59.9653L48.2752 63.0248L47.0005 63.0767C45.7432 63.1285 45.7257 63.1285 45.6209 63.6298L45.5336 64.1484H32.7863C22.6582 64.1484 20.0564 64.0965 20.1088 63.9237C20.1612 63.82 20.7199 61.9531 21.3835 59.7752L22.5884 55.8514H34.3928H46.2147L47.2973 56.3872ZM45.5686 72.1861V75.021L44.5732 75.0728C43.6652 75.1247 43.5604 75.1592 43.508 75.5222C43.4207 76.1618 43.77 76.4211 44.7129 76.4211H45.5686V77.4582V78.4953H27.6175C8.77585 78.4953 8.74092 78.4953 9.17748 77.7694C9.4918 77.2508 14.9924 70.6132 15.4813 70.181C15.7432 69.9217 16.2147 69.6452 16.4941 69.5415C16.8434 69.4205 21.8375 69.3513 31.302 69.3513L45.5686 69.334V72.1861ZM70.4172 74.6407C71.8316 76.3692 72.9841 77.8558 72.9841 77.9595C72.9841 78.3571 72.1983 78.4953 69.9457 78.4953H67.5708V77.4582V76.4211H68.4439C69.2123 76.4211 69.352 76.3692 69.5266 75.9889C69.8235 75.3494 69.4567 75.0382 68.4265 75.0382H67.5708V73.1023C67.5708 72.0306 67.6407 71.2354 67.7105 71.3219C67.7978 71.4256 69.0202 72.9121 70.4172 74.6407ZM45.5686 80.656V81.4339H27.4952C9.82358 81.4339 9.42195 81.4339 9.24733 81.1054C9.0727 80.7597 9.00286 79.9992 9.14255 79.8609C9.17748 79.8263 17.4021 79.809 27.3905 79.8436L45.5686 79.8782V80.656ZM72.792 81.1919C72.6348 81.382 72.0411 81.4339 70.0854 81.4339H67.5708V80.656V79.8955L70.2425 79.8436L72.8968 79.7918L72.9492 80.3622C72.9841 80.6733 72.9142 81.0536 72.792 81.1919Z" fill="#353535"/>
</svg>
