<svg width="110" height="88" viewBox="0 0 110 88" fill="none" xmlns="http://www.w3.org/2000/svg">
<path d="M6.6952 3.5701C5.54446 3.98766 4.16358 5.40735 3.76605 6.55563C3.49406 7.36987 3.45221 11.1905 3.45221 38.7701C3.45221 72.7592 3.36852 70.567 4.60295 71.7153L5.16786 72.2372L22.1151 72.2999L39.0832 72.3416L38.9368 73.5525C38.874 74.1998 38.7485 75.87 38.6648 77.2479C38.5392 79.8576 38.5602 80.0038 39.6063 81.9872C39.6481 82.0707 37.3466 82.1751 34.5012 82.196C30.0447 82.2586 29.3124 82.3003 29.1241 82.5926C28.8103 83.0937 29.1032 83.9706 29.6472 84.1167C29.9192 84.1794 41.3428 84.242 55.0262 84.242C82.1208 84.242 80.8654 84.3046 80.8654 83.1146C80.8654 82.196 80.6562 82.1542 75.2582 82.1542C72.4546 82.1542 70.195 82.0916 70.2368 81.9872C71.2829 79.9829 71.3039 79.8368 71.1574 77.3523C71.0946 76.037 70.9691 74.3668 70.9063 73.6569L70.7599 72.3416L87.728 72.2999L104.675 72.2372L105.24 71.7153C106.475 70.567 106.391 72.7592 106.391 38.7701C106.391 3.77888 106.516 6.34685 104.864 4.73926C103.19 3.11079 107.667 3.23605 54.8379 3.25694C13.8716 3.25694 7.42749 3.29869 6.6952 3.5701ZM102.981 5.74139C103.357 5.95017 103.817 6.45124 104.027 6.82704C104.382 7.47425 104.403 8.91483 104.403 34.4484V61.3808H54.9215H5.43985V34.4484C5.43985 8.91483 5.46077 7.47425 5.81645 6.82704C6.02568 6.45124 6.48597 5.95017 6.86258 5.74139C7.51118 5.32384 8.28531 5.32384 54.9215 5.32384C101.558 5.32384 102.332 5.32384 102.981 5.74139ZM104.508 66.4958C104.508 69.3561 104.466 69.6693 104.089 70.0451C103.671 70.4626 103.399 70.4626 54.9215 70.4626C6.44413 70.4626 6.17214 70.4626 5.75369 70.0451C5.37708 69.6693 5.33524 69.3561 5.33524 66.4958V63.3642H54.9215H104.508V66.4958ZM68.7932 73.0097C68.8559 73.3855 69.0233 74.9305 69.1698 76.4546C69.3999 79.0434 69.3999 79.2313 69.0024 79.9829C68.7722 80.4213 68.2492 81.0686 67.8098 81.4026L67.0147 82.0498H54.9215H42.8283L42.0333 81.4026C41.5939 81.0686 41.0709 80.4213 40.8407 79.9829C40.4432 79.2313 40.4432 79.0434 40.6733 76.4546C40.8198 74.9305 40.9872 73.3855 41.0499 73.0097L41.1545 72.3416H54.9215H68.6885L68.7932 73.0097Z" fill="#353535"/>
<path d="M52.7874 66.0991C52.2644 66.3914 52.2853 67.4562 52.8084 67.7485C53.0385 67.8529 53.98 67.9573 54.9215 67.9573C56.951 67.9573 57.4322 67.7485 57.4322 66.9134C57.4322 66.5167 57.2858 66.2244 57.0347 66.0783C56.5117 65.8069 53.2477 65.8069 52.7874 66.0991Z" fill="#353535"/>
<path fill-rule="evenodd" clip-rule="evenodd" d="M37.1897 43.5302C41.0896 43.5302 44.2511 40.3755 44.2511 36.4839C44.2511 32.5924 41.0896 29.4377 37.1897 29.4377C33.2899 29.4377 30.1284 32.5924 30.1284 36.4839C30.1284 40.3755 33.2899 43.5302 37.1897 43.5302ZM37.1897 45.096C41.9562 45.096 45.8203 41.2403 45.8203 36.4839C45.8203 31.7276 41.9562 27.8718 37.1897 27.8718C32.4232 27.8718 28.5592 31.7276 28.5592 36.4839C28.5592 41.2403 32.4232 45.096 37.1897 45.096Z" fill="#353535"/>
<path fill-rule="evenodd" clip-rule="evenodd" d="M55.0785 37.8932C58.9783 37.8932 62.1398 34.7385 62.1398 30.847C62.1398 26.9554 58.9783 23.8007 55.0785 23.8007C51.1786 23.8007 48.0171 26.9554 48.0171 30.847C48.0171 34.7385 51.1786 37.8932 55.0785 37.8932ZM55.0785 39.4591C59.845 39.4591 63.709 35.6033 63.709 30.847C63.709 26.0906 59.845 22.2349 55.0785 22.2349C50.312 22.2349 46.4479 26.0906 46.4479 30.847C46.4479 35.6033 50.312 39.4591 55.0785 39.4591Z" fill="#353535"/>
<path fill-rule="evenodd" clip-rule="evenodd" d="M73.1241 43.5302C77.024 43.5302 80.1855 40.3755 80.1855 36.4839C80.1855 32.5924 77.024 29.4377 73.1241 29.4377C69.2242 29.4377 66.0628 32.5924 66.0628 36.4839C66.0628 40.3755 69.2242 43.5302 73.1241 43.5302ZM73.1241 45.096C77.8906 45.096 81.7546 41.2403 81.7546 36.4839C81.7546 31.7276 77.8906 27.8718 73.1241 27.8718C68.3576 27.8718 64.4936 31.7276 64.4936 36.4839C64.4936 41.2403 68.3576 45.096 73.1241 45.096Z" fill="#353535"/>
<path fill-rule="evenodd" clip-rule="evenodd" d="M43.1368 48.8316C41.0816 47.1521 38.5891 47.1317 36.4836 47.1317C34.196 47.1317 32.4883 47.6072 31.2029 48.3805C29.9203 49.1522 29.0092 50.2497 28.3602 51.5759C27.0438 54.2662 26.8331 57.8324 26.8331 61.3025C26.8331 61.6916 26.517 62.0071 26.127 62.0071C25.737 62.0071 25.4208 61.6916 25.4208 61.3025C25.4208 57.8446 25.6156 53.9731 27.0911 50.9576C27.8381 49.431 28.9196 48.1086 30.4737 47.1736C32.0251 46.2403 33.9984 45.7224 36.4836 45.7224C36.5036 45.7224 36.5238 45.7224 36.544 45.7224C38.595 45.7222 41.5605 45.7219 44.0316 47.7413C46.5416 49.7925 48.3678 53.7656 48.5661 61.284C48.5764 61.673 48.2686 61.9966 47.8788 62.0069C47.4889 62.0171 47.1646 61.71 47.1543 61.321C46.9603 53.964 45.1774 50.4993 43.1368 48.8316Z" fill="#353535"/>
<path fill-rule="evenodd" clip-rule="evenodd" d="M54.8544 41.4937C54.6945 41.4942 54.5338 41.4946 54.3723 41.4946C52.0956 41.4946 50.4449 42.0069 49.2411 42.7376C48.0363 43.4689 47.2386 44.4437 46.707 45.4298C46.1732 46.4202 45.9104 47.4182 45.7822 48.174C45.7184 48.5503 45.6887 48.8622 45.6749 49.0769C45.6681 49.1842 45.6652 49.2668 45.664 49.3207C45.6634 49.3476 45.6633 49.3673 45.6633 49.3793C45.6632 49.3853 45.6633 49.3893 45.6633 49.3914L45.6633 49.3921C45.6633 49.3918 45.6633 49.3914 44.9584 49.4021L45.6633 49.3914C45.6633 49.3919 45.6633 49.3923 45.6633 49.3928C45.6684 49.7813 45.3574 50.1007 44.9679 50.1066C44.5779 50.1125 44.257 49.8018 44.2511 49.4127L44.9572 49.4021C44.2511 49.4127 44.2511 49.4123 44.2511 49.4119L44.2511 49.4108L44.2511 49.4081L44.251 49.4003C44.251 49.3941 44.251 49.3858 44.251 49.3755C44.251 49.3548 44.2513 49.3262 44.2521 49.29C44.2537 49.2178 44.2573 49.1154 44.2655 48.9871C44.2819 48.7309 44.3166 48.3699 44.3897 47.9389C44.5354 47.0799 44.8366 45.9249 45.4633 44.7622C46.0923 43.5953 47.0517 42.4171 48.5072 41.5336C49.9636 40.6496 51.8762 40.0854 54.3723 40.0854C54.5439 40.0854 54.7184 40.0845 54.8954 40.0837C56.7967 40.0746 58.9881 40.064 60.9528 41.0737C63.1631 42.2096 64.9568 44.5439 66.0434 49.0817C66.1341 49.4602 65.9 49.8404 65.5207 49.9308C65.1414 50.0213 64.7605 49.7877 64.6698 49.4092C63.638 45.1001 62.0188 43.2067 60.3062 42.3266C58.6645 41.4829 56.8184 41.4881 54.8544 41.4937Z" fill="#353535"/>
<path fill-rule="evenodd" clip-rule="evenodd" d="M72.5483 47.1316C72.5048 47.1316 72.4614 47.1317 72.418 47.1317C70.1253 47.1317 68.5134 47.5993 67.3659 48.3434C66.2248 49.0833 65.478 50.1385 64.9877 51.4369C64.493 52.7472 64.266 54.2892 64.1675 55.9646C64.0885 57.3096 64.0936 58.7031 64.0988 60.105C64.1 60.4517 64.1013 60.7988 64.1013 61.1459C64.1013 61.5351 63.7851 61.8505 63.3952 61.8505C63.0052 61.8505 62.689 61.5351 62.689 61.1459C62.689 60.811 62.6878 60.4721 62.6865 60.1306C62.6813 58.7249 62.6759 57.2754 62.7577 55.8821C62.8596 54.1482 63.0984 52.4435 63.6662 50.94C64.2384 49.4247 65.1507 48.0992 66.5963 47.1618C68.0355 46.2286 69.9378 45.7224 72.418 45.7224C72.4949 45.7224 72.573 45.7223 72.6522 45.7222C74.6699 45.7191 77.3829 45.715 79.7132 47.6355C82.1337 49.6303 83.9837 53.5514 84.577 61.0907C84.6076 61.4787 84.3171 61.8179 83.9283 61.8483C83.5395 61.8788 83.1996 61.589 83.1691 61.201C82.5856 53.7867 80.7871 50.3483 78.8139 48.7221C76.8823 47.1302 74.632 47.1309 72.5483 47.1316Z" fill="#353535"/>
<path d="M54.7161 7.49155C54.8291 7.25184 55.1709 7.25184 55.284 7.49155L56.6075 10.2971C56.6533 10.3941 56.7455 10.461 56.8521 10.4744L59.9351 10.8636C60.1985 10.8968 60.3041 11.2211 60.1105 11.4025L57.8456 13.5256C57.7673 13.599 57.7321 13.7072 57.7522 13.8125L58.334 16.8585C58.3837 17.1188 58.1072 17.3192 57.8745 17.1916L55.1512 15.6982C55.057 15.6466 54.943 15.6466 54.8489 15.6982L52.1255 17.1916C51.8928 17.3192 51.6163 17.1188 51.666 16.8585L52.2478 13.8125C52.268 13.7072 52.2327 13.599 52.1544 13.5256L49.8895 11.4025C49.6959 11.2211 49.8015 10.8968 50.065 10.8636L53.1479 10.4744C53.2545 10.461 53.3467 10.3941 53.3925 10.2971L54.7161 7.49155Z" fill="#F9CE37"/>
<path d="M42.5549 11.8758C42.668 11.6361 43.0097 11.6361 43.1228 11.8758L44.1101 13.9688C44.1559 14.0657 44.2481 14.1326 44.3547 14.1461L46.6546 14.4364C46.918 14.4696 47.0236 14.7939 46.8301 14.9753L45.1404 16.5591C45.0621 16.6325 45.0269 16.7407 45.047 16.846L45.481 19.1183C45.5307 19.3786 45.2543 19.579 45.0216 19.4514L42.99 18.3373C42.8958 18.2857 42.7818 18.2857 42.6877 18.3373L40.656 19.4514C40.4233 19.579 40.1469 19.3786 40.1966 19.1183L40.6306 16.846C40.6507 16.7407 40.6155 16.6325 40.5372 16.5591L38.8476 14.9753C38.654 14.7939 38.7596 14.4696 39.0231 14.4364L41.3229 14.1461C41.4295 14.1326 41.5217 14.0657 41.5675 13.9688L42.5549 11.8758Z" fill="#F9CE37"/>
<path d="M66.8773 11.8758C66.9903 11.6361 67.3321 11.6361 67.4451 11.8758L68.4325 13.9688C68.4783 14.0657 68.5705 14.1326 68.6771 14.1461L70.977 14.4364C71.2404 14.4696 71.346 14.7939 71.1525 14.9753L69.4628 16.5591C69.3845 16.6325 69.3493 16.7407 69.3694 16.846L69.8034 19.1183C69.8531 19.3786 69.5767 19.579 69.344 19.4514L67.3124 18.3373C67.2182 18.2857 67.1042 18.2857 67.0101 18.3373L64.9784 19.4514C64.7457 19.579 64.4693 19.3786 64.519 19.1183L64.953 16.846C64.9731 16.7407 64.9379 16.6325 64.8596 16.5591L63.17 14.9753C62.9764 14.7939 63.082 14.4696 63.3454 14.4364L65.6453 14.1461C65.7519 14.1326 65.8441 14.0657 65.8899 13.9688L66.8773 11.8758Z" fill="#F9CE37"/>
<path d="M31.5706 14.5378C31.6836 14.2981 32.0254 14.2981 32.1384 14.5378L33.1258 16.6308C33.1716 16.7277 33.2638 16.7946 33.3704 16.8081L35.6703 17.0983C35.9337 17.1316 36.0393 17.4559 35.8458 17.6373L34.1561 19.2211C34.0778 19.2945 34.0426 19.4027 34.0627 19.508L34.4967 21.7803C34.5464 22.0406 34.27 22.241 34.0373 22.1134L32.0056 20.9993C31.9115 20.9477 31.7975 20.9477 31.7034 20.9993L29.6717 22.1134C29.439 22.241 29.1626 22.0406 29.2123 21.7803L29.6463 19.508C29.6664 19.4027 29.6312 19.2945 29.5529 19.2211L27.8633 17.6373C27.6697 17.4559 27.7753 17.1316 28.0387 17.0983L30.3386 16.8081C30.4452 16.7946 30.5374 16.7277 30.5832 16.6308L31.5706 14.5378Z" fill="#F9CE37"/>
<path d="M77.8616 14.5378C77.9747 14.2981 78.3164 14.2981 78.4295 14.5378L79.4168 16.6308C79.4626 16.7277 79.5548 16.7946 79.6614 16.8081L81.9613 17.0983C82.2247 17.1316 82.3303 17.4559 82.1368 17.6373L80.4471 19.2211C80.3688 19.2945 80.3336 19.4027 80.3537 19.508L80.7877 21.7803C80.8374 22.0406 80.561 22.241 80.3283 22.1134L78.2967 20.9993C78.2025 20.9477 78.0885 20.9477 77.9944 20.9993L75.9627 22.1134C75.73 22.241 75.4536 22.0406 75.5033 21.7803L75.9373 19.508C75.9574 19.4027 75.9222 19.2945 75.8439 19.2211L74.1543 17.6373C73.9607 17.4559 74.0663 17.1316 74.3298 17.0983L76.6296 16.8081C76.7362 16.7946 76.8284 16.7277 76.8742 16.6308L77.8616 14.5378Z" fill="#F9CE37"/>
</svg>
